%TF.GenerationSoftware,KiCad,Pcbnew,7.0.5-4d25ed1034~172~ubuntu20.04.1*%
%TF.CreationDate,2023-06-21T20:10:42+02:00*%
%TF.ProjectId,Arduino Shield,41726475-696e-46f2-9053-6869656c642e,rev?*%
%TF.SameCoordinates,Original*%
%TF.FileFunction,Soldermask,Bot*%
%TF.FilePolarity,Negative*%
%FSLAX46Y46*%
G04 Gerber Fmt 4.6, Leading zero omitted, Abs format (unit mm)*
G04 Created by KiCad (PCBNEW 7.0.5-4d25ed1034~172~ubuntu20.04.1) date 2023-06-21 20:10:42*
%MOMM*%
%LPD*%
G01*
G04 APERTURE LIST*
%ADD10C,1.600000*%
%ADD11O,1.600000X1.600000*%
%ADD12R,1.700000X1.700000*%
%ADD13O,1.700000X1.700000*%
%ADD14C,5.200000*%
%ADD15C,1.700000*%
%ADD16C,3.200000*%
%ADD17R,1.800000X1.800000*%
%ADD18C,1.800000*%
G04 APERTURE END LIST*
D10*
%TO.C,R1*%
X121844000Y-63424000D03*
D11*
X114224000Y-63424000D03*
%TD*%
D12*
%TO.C,J6*%
X118796000Y-51994000D03*
D13*
X121336000Y-51994000D03*
X123876000Y-51994000D03*
X126416000Y-51994000D03*
X128956000Y-51994000D03*
X131496000Y-51994000D03*
X134036000Y-51994000D03*
X136576000Y-51994000D03*
X139116000Y-51994000D03*
X141656000Y-51994000D03*
%TD*%
D12*
%TO.C,J7*%
X145720000Y-51994000D03*
D13*
X148260000Y-51994000D03*
X150800000Y-51994000D03*
X153340000Y-51994000D03*
X155880000Y-51994000D03*
X158420000Y-51994000D03*
X160960000Y-51994000D03*
X163500000Y-51994000D03*
%TD*%
D14*
%TO.C,J5*%
X109620000Y-77140000D03*
X156420000Y-77140000D03*
D15*
X144900000Y-74995000D03*
X142740000Y-74995000D03*
X140580000Y-74995000D03*
X138420000Y-74995000D03*
X136260000Y-74995000D03*
X134100000Y-74995000D03*
X131940000Y-74995000D03*
X129780000Y-74995000D03*
X127620000Y-74995000D03*
X125460000Y-74995000D03*
X123300000Y-74995000D03*
X121140000Y-74995000D03*
X144900000Y-79285000D03*
X142740000Y-79285000D03*
X140580000Y-79285000D03*
X138420000Y-79285000D03*
X136260000Y-79285000D03*
X134100000Y-79285000D03*
X131940000Y-79285000D03*
X129780000Y-79285000D03*
X127620000Y-79285000D03*
X125460000Y-79285000D03*
X123300000Y-79285000D03*
X121140000Y-79285000D03*
%TD*%
D12*
%TO.C,J9*%
X150800000Y-94666000D03*
D13*
X153340000Y-94666000D03*
X155880000Y-94666000D03*
X158420000Y-94666000D03*
X160960000Y-94666000D03*
X163500000Y-94666000D03*
%TD*%
D16*
%TO.C,MH1*%
X115240000Y-49200000D03*
%TD*%
D12*
%TO.C,J8*%
X127940000Y-94666000D03*
D13*
X130480000Y-94666000D03*
X133020000Y-94666000D03*
X135560000Y-94666000D03*
X138100000Y-94666000D03*
X140640000Y-94666000D03*
X143180000Y-94666000D03*
X145720000Y-94666000D03*
%TD*%
D16*
%TO.C,MH2*%
X113970000Y-97460000D03*
%TD*%
%TO.C,MH3*%
X166040000Y-64440000D03*
%TD*%
D17*
%TO.C,D1*%
X126670000Y-63424000D03*
D18*
X129210000Y-63424000D03*
%TD*%
D16*
%TO.C,MH4*%
X166040000Y-92380000D03*
%TD*%
D12*
%TO.C,J1*%
X127940000Y-97460000D03*
D13*
X130480000Y-97460000D03*
X133020000Y-97460000D03*
X135560000Y-97460000D03*
X138100000Y-97460000D03*
X140640000Y-97460000D03*
X143180000Y-97460000D03*
X145720000Y-97460000D03*
%TD*%
D12*
%TO.C,J3*%
X150800000Y-97460000D03*
D13*
X153340000Y-97460000D03*
X155880000Y-97460000D03*
X158420000Y-97460000D03*
X160960000Y-97460000D03*
X163500000Y-97460000D03*
%TD*%
D12*
%TO.C,J2*%
X118801000Y-49200000D03*
D13*
X121341000Y-49200000D03*
X123881000Y-49200000D03*
X126421000Y-49200000D03*
X128961000Y-49200000D03*
X131501000Y-49200000D03*
X134041000Y-49200000D03*
X136581000Y-49200000D03*
X139121000Y-49200000D03*
X141661000Y-49200000D03*
%TD*%
D12*
%TO.C,J4*%
X145720000Y-49200000D03*
D13*
X148260000Y-49200000D03*
X150800000Y-49200000D03*
X153340000Y-49200000D03*
X155880000Y-49200000D03*
X158420000Y-49200000D03*
X160960000Y-49200000D03*
X163500000Y-49200000D03*
%TD*%
M02*
