M48
; DRILL file {KiCad 7.0.2-6a45011f42~172~ubuntu22.04.1} date Do 25 Mai 2023 17:45:35 CEST
; FORMAT={-:-/ absolute / inch / decimal}
; #@! TF.CreationDate,2023-05-25T17:45:35+02:00
; #@! TF.GenerationSoftware,Kicad,Pcbnew,7.0.2-6a45011f42~172~ubuntu22.04.1
; #@! TF.FileFunction,Plated,1,2,PTH
FMAT,2
INCH
; #@! TA.AperFunction,Plated,PTH,ViaDrill
T1C0.0157
; #@! TA.AperFunction,Plated,PTH,ComponentDrill
T2C0.0315
; #@! TA.AperFunction,Plated,PTH,ComponentDrill
T3C0.0354
; #@! TA.AperFunction,Plated,PTH,ComponentDrill
T4C0.0394
%
G90
G05
T1
X5.237Y-2.837
X5.312Y-2.837
X5.8124Y-2.347
X5.937Y-2.347
X5.937Y-3.112
X5.937Y-3.262
X6.037Y-3.262
X6.037Y-3.362
T2
X4.497Y-2.497
X4.797Y-2.497
T3
X4.987Y-2.497
X5.087Y-2.497
T4
X4.677Y-2.047
X4.6772Y-1.937
X4.7693Y-2.9526
X4.7693Y-3.1215
X4.777Y-2.047
X4.7772Y-1.937
X4.8543Y-2.9526
X4.8543Y-3.1215
X4.877Y-2.047
X4.8772Y-1.937
X4.9394Y-2.9526
X4.9394Y-3.1215
X4.977Y-2.047
X4.9772Y-1.937
X5.0244Y-2.9526
X5.0244Y-3.1215
X5.037Y-3.727
X5.037Y-3.837
X5.077Y-2.047
X5.0772Y-1.937
X5.1094Y-2.9526
X5.1094Y-3.1215
X5.137Y-3.727
X5.137Y-3.837
X5.177Y-2.047
X5.1772Y-1.937
X5.1945Y-2.9526
X5.1945Y-3.1215
X5.237Y-3.727
X5.237Y-3.837
X5.277Y-2.047
X5.2772Y-1.937
X5.2795Y-2.9526
X5.2795Y-3.1215
X5.337Y-3.727
X5.337Y-3.837
X5.3646Y-2.9526
X5.3646Y-3.1215
X5.377Y-2.047
X5.3772Y-1.937
X5.437Y-3.727
X5.437Y-3.837
X5.4496Y-2.9526
X5.4496Y-3.1215
X5.477Y-2.047
X5.4772Y-1.937
X5.5346Y-2.9526
X5.5346Y-3.1215
X5.537Y-3.727
X5.537Y-3.837
X5.577Y-2.047
X5.5772Y-1.937
X5.6197Y-2.9526
X5.6197Y-3.1215
X5.637Y-3.727
X5.637Y-3.837
X5.7047Y-2.9526
X5.7047Y-3.1215
X5.737Y-1.937
X5.737Y-2.047
X5.737Y-3.727
X5.737Y-3.837
X5.837Y-1.937
X5.837Y-2.047
X5.937Y-1.937
X5.937Y-2.047
X5.937Y-3.727
X5.937Y-3.837
X6.037Y-1.937
X6.037Y-2.047
X6.037Y-3.727
X6.037Y-3.837
X6.137Y-1.937
X6.137Y-2.047
X6.137Y-3.727
X6.137Y-3.837
X6.237Y-1.937
X6.237Y-2.047
X6.237Y-3.727
X6.237Y-3.837
X6.337Y-1.937
X6.337Y-2.047
X6.337Y-3.727
X6.337Y-3.837
X6.437Y-1.937
X6.437Y-2.047
X6.437Y-3.727
X6.437Y-3.837
T0
M30
