%TF.GenerationSoftware,KiCad,Pcbnew,7.0.5-4d25ed1034~172~ubuntu20.04.1*%
%TF.CreationDate,2023-06-21T20:10:42+02:00*%
%TF.ProjectId,Arduino Shield,41726475-696e-46f2-9053-6869656c642e,rev?*%
%TF.SameCoordinates,Original*%
%TF.FileFunction,Legend,Bot*%
%TF.FilePolarity,Positive*%
%FSLAX46Y46*%
G04 Gerber Fmt 4.6, Leading zero omitted, Abs format (unit mm)*
G04 Created by KiCad (PCBNEW 7.0.5-4d25ed1034~172~ubuntu20.04.1) date 2023-06-21 20:10:42*
%MOMM*%
%LPD*%
G01*
G04 APERTURE LIST*
%ADD10C,0.150000*%
%ADD11C,0.120000*%
G04 APERTURE END LIST*
D10*
X126670000Y-96190000D02*
X146990000Y-96190000D01*
X146990000Y-98730000D01*
X126670000Y-98730000D01*
X126670000Y-96190000D01*
X164770000Y-98730000D02*
X164770000Y-96190000D01*
X164770000Y-96190000D02*
X149530000Y-96190000D01*
X164770000Y-98730000D02*
X149530000Y-98730000D01*
X149530000Y-96190000D02*
X149530000Y-98730000D01*
X144450000Y-47930000D02*
X144450000Y-50470000D01*
X164770000Y-50470000D02*
X164770000Y-48692000D01*
X144450000Y-50470000D02*
X164770000Y-50470000D01*
X164008000Y-47930000D02*
X144450000Y-47930000D01*
X164770000Y-48692000D02*
X164008000Y-47930000D01*
X117526000Y-47930000D02*
X142926000Y-47930000D01*
X142926000Y-50470000D01*
X117526000Y-50470000D01*
X117526000Y-47930000D01*
%TO.C,R1*%
X118200666Y-63878819D02*
X118533999Y-63402628D01*
X118772094Y-63878819D02*
X118772094Y-62878819D01*
X118772094Y-62878819D02*
X118391142Y-62878819D01*
X118391142Y-62878819D02*
X118295904Y-62926438D01*
X118295904Y-62926438D02*
X118248285Y-62974057D01*
X118248285Y-62974057D02*
X118200666Y-63069295D01*
X118200666Y-63069295D02*
X118200666Y-63212152D01*
X118200666Y-63212152D02*
X118248285Y-63307390D01*
X118248285Y-63307390D02*
X118295904Y-63355009D01*
X118295904Y-63355009D02*
X118391142Y-63402628D01*
X118391142Y-63402628D02*
X118772094Y-63402628D01*
X117248285Y-63878819D02*
X117819713Y-63878819D01*
X117533999Y-63878819D02*
X117533999Y-62878819D01*
X117533999Y-62878819D02*
X117629237Y-63021676D01*
X117629237Y-63021676D02*
X117724475Y-63116914D01*
X117724475Y-63116914D02*
X117819713Y-63164533D01*
D11*
X121304000Y-64794000D02*
X114764000Y-64794000D01*
X121304000Y-64464000D02*
X121304000Y-64794000D01*
X121304000Y-62384000D02*
X121304000Y-62054000D01*
X121304000Y-62054000D02*
X114764000Y-62054000D01*
X114764000Y-64794000D02*
X114764000Y-64464000D01*
X114764000Y-62054000D02*
X114764000Y-62384000D01*
%TD*%
M02*
